<svg xmlns="http://www.w3.org/2000/svg" xmlns:xlink="http://www.w3.org/1999/xlink" width="383" height="96" viewBox="0 0 383 96">
  <defs>
    <clipPath id="clip-path">
      <rect id="사각형_8" data-name="사각형 8" width="367.633" height="69.888" fill="none"/>
    </clipPath>
  </defs>
  <g id="Logo" transform="translate(-767 -331)">
    <rect id="사각형_9" data-name="사각형 9" width="383" height="96" transform="translate(767 331)" fill="#fff" opacity="0"/>
    <g id="Logo-2" data-name="Logo" transform="translate(775 344)">
      <g id="그룹_2" data-name="그룹 2" transform="translate(0 0)" clip-path="url(#clip-path)">
        <path id="패스_8" data-name="패스 8" d="M61.137,21.448c-13.668,0-22,11.158-22,25.3a24.962,24.962,0,0,0,4.687,15.259,37.753,37.753,0,0,1-9.811,1.313c-15.893,0-25.095-10.274-25.095-26.263,0-17.156,10.18-26.942,25.489-26.942a30.77,30.77,0,0,1,13.18,2.715l2.036-6.881c-2.226-1.168-7.371-2.9-15.5-2.9C13.857,3.044,0,16.9,0,37.341,0,58.774,13.857,70.39,32.276,70.39c7.938,0,14.141-1.546,17.251-3.093l-.048-.18A24.568,24.568,0,0,0,62.21,70.39c7.466,0,12.6-1.546,15.594-2.9l-1.452-6.108a30.744,30.744,0,0,1-12.974,2.431c-8.539,0-15.909-4.751-16.1-16.288H80.236a32.936,32.936,0,0,0,.283-3.978c0-8.618-4.072-22.1-19.382-22.1M47.375,41.413c.679-5.9,4.466-13.858,13.084-13.858,9.6,0,11.932,8.428,11.822,13.858Z" transform="translate(0 -0.613)" fill="#111a31"/>
        <path id="패스_9" data-name="패스 9" d="M328.53,0h-8.524V28.015h-.2c-2.131-3.788-6.976-7.181-14.143-7.181-11.412,0-21.073,9.551-21.03,25.089V21.906h-8.522V50.7a12.739,12.739,0,0,1-.774,4.357A12.332,12.332,0,0,1,264.08,62.8c-7.75,0-10.464-6-10.464-14.915V21.906H232.877V10.817h-8.333v11.09h-7.261v6.487h7.261V50.682c-.121-9.4-5.717-14.679-16.644-18.895-9.012-3.488-12.99-6.487-12.99-12.595,0-4.451,3.394-9.786,12.311-9.786A26.134,26.134,0,0,1,219.627,12.5l2.32-6.881c-2.9-1.641-7.75-3.188-14.425-3.188-12.706,0-21.134,7.56-21.134,17.724,0,.474.091.9.125,1.354a24.754,24.754,0,0,0-5.662-.691c-10.084,0-16.193,6.2-16.193,13.763,0,5.635,3.977,10.274,12.405,13.29,6.314,2.32,8.728,4.544,8.728,8.617,0,3.883-2.9,6.976-9.107,6.976a22.213,22.213,0,0,1-11.237-3.394l-2.113,6.4c-.179-3.143-.273-6.563-.273-10.456V21.906h-8.522V50.7a12.739,12.739,0,0,1-.774,4.357A12.333,12.333,0,0,1,142.511,62.8c-7.749,0-10.464-6-10.464-14.915V21.906H111.308V10.817h-8.334v11.09H95.714v6.487h7.261V53.977c0,5.54.869,9.707,3.3,12.217,2.036,2.335,5.224,3.582,9.2,3.582a20.875,20.875,0,0,0,7.56-1.153l-.379-6.407a18.619,18.619,0,0,1-4.956.584c-4.735,0-6.392-3.284-6.392-9.107v-25.3h12.216V49.338c0,16.477,8.823,20.549,16.178,20.549a17.68,17.68,0,0,0,15.514-8.728h.19l.489,7.655h7.561c-.056-.685-.073-1.494-.116-2.22a26.789,26.789,0,0,0,13.154,3.169,21.312,21.312,0,0,0,11.211-2.781,37.091,37.091,0,0,0,13.993,2.8c15.278,0,22.725-8.575,22.847-18.555v2.756c0,5.54.868,9.707,3.3,12.217,2.036,2.335,5.224,3.582,9.2,3.582a20.872,20.872,0,0,0,7.56-1.153l-.378-6.407a18.624,18.624,0,0,1-4.956.584c-4.735,0-6.393-3.284-6.393-9.107v-25.3h12.217V49.338c0,16.477,8.822,20.549,16.177,20.549a17.679,17.679,0,0,0,15.515-8.728h.189l.489,7.655h7.56c-.3-3.677-.4-7.955-.4-12.8V46.148c.047,14.189,8.75,23.738,20.052,23.738,7.671,0,13.384-3.977,16-9.217h.189l.394,8.144h7.655c-.3-3.2-.394-7.954-.394-12.12ZM202.281,62.8a29.144,29.144,0,0,1-9.352-1.642,13.632,13.632,0,0,0,1.1-5.443c0-6.976-4.166-11.047-12.311-14.157C175.61,39.238,172.8,37.5,172.8,33.62c0-3.488,2.81-6.393,7.86-6.393a18.092,18.092,0,0,1,8.677,2.208c2.909,4,7.839,6.948,14.3,9.233,8.822,3.393,12.31,6.881,12.31,12.988,0,6.6-5.051,11.144-13.668,11.144M320.007,49.132a14.533,14.533,0,0,1-.394,3.695,12.829,12.829,0,0,1-12.5,10.179c-9.2,0-13.857-7.86-13.857-17.363,0-10.369,5.224-18.118,14.046-18.118a12.548,12.548,0,0,1,12.312,9.88,14.728,14.728,0,0,1,.394,3.6Z" transform="translate(-19.297 0)" fill="#111a31"/>
        <path id="패스_10" data-name="패스 10" d="M392.346,27.439V74.346h8.539V27.439Z" transform="translate(-79.102 -5.532)" fill="#111a31"/>
        <path id="패스_11" data-name="패스 11" d="M426.3,26.094c-12.989,0-23.264,9.217-23.264,24.922,0,14.82,9.8,24.132,22.491,24.132,11.332,0,23.36-7.56,23.36-24.922,0-14.33-9.107-24.132-22.586-24.132m-.378,42.646c-8.35,0-14.252-7.749-14.252-18.024,0-8.918,4.356-18.214,14.441-18.214,10.07,0,14.047,10.07,14.047,18.024,0,10.559-6.108,18.214-14.236,18.214" transform="translate(-81.258 -5.261)" fill="#111a31"/>
        <path id="패스_12" data-name="패스 12" d="M411.151,12.321V6.48h-2.092V17.969h2.092Z" transform="translate(-82.472 -1.306)" fill="#111a31"/>
        <path id="패스_13" data-name="패스 13" d="M407.179,17.969V6.48h-2.092V17.969Z" transform="translate(-81.671 -1.306)" fill="#111a31"/>
        <path id="패스_14" data-name="패스 14" d="M457.849,6.48V17.968h2.092V6.48Z" transform="translate(-92.308 -1.306)" fill="#111a31"/>
        <path id="패스_15" data-name="패스 15" d="M455.969,17.969V6.48h-2.091V17.969Z" transform="translate(-91.507 -1.306)" fill="#111a31"/>
        <path id="패스_16" data-name="패스 16" d="M417.188,18.165c2.776,0,5.721-1.851,5.721-6.1,0-3.511-2.231-5.911-5.532-5.911-3.182,0-5.7,2.258-5.7,6.1,0,3.629,2.4,5.91,5.509,5.91m.143-10.445c2.467,0,3.44,2.466,3.44,4.415,0,2.586-1.5,4.461-3.487,4.461-2.045,0-3.491-1.9-3.491-4.414,0-2.184,1.067-4.461,3.538-4.461" transform="translate(-83 -1.24)" fill="#111a31"/>
        <path id="패스_17" data-name="패스 17" d="M431.254,18.165c2.776,0,5.722-1.851,5.722-6.1,0-3.511-2.231-5.911-5.532-5.911-3.182,0-5.7,2.258-5.7,6.1,0,3.629,2.4,5.91,5.509,5.91M431.4,7.72c2.466,0,3.44,2.466,3.44,4.415,0,2.586-1.5,4.461-3.487,4.461-2.045,0-3.491-1.9-3.491-4.414,0-2.184,1.067-4.461,3.538-4.461" transform="translate(-85.836 -1.24)" fill="#111a31"/>
        <path id="패스_18" data-name="패스 18" d="M445.319,18.165c2.777,0,5.723-1.851,5.723-6.1,0-3.511-2.231-5.911-5.533-5.911-3.181,0-5.7,2.258-5.7,6.1,0,3.629,2.4,5.91,5.508,5.91m.145-10.445c2.466,0,3.441,2.466,3.441,4.415,0,2.586-1.5,4.461-3.488,4.461-2.046,0-3.491-1.9-3.491-4.414,0-2.184,1.067-4.461,3.538-4.461" transform="translate(-88.671 -1.24)" fill="#111a31"/>
        <path id="패스_19" data-name="패스 19" d="M396.53,18.165c2.777,0,5.722-1.851,5.722-6.1,0-3.511-2.231-5.911-5.532-5.911-3.182,0-5.7,2.258-5.7,6.1,0,3.629,2.4,5.91,5.508,5.91m.144-10.445c2.467,0,3.44,2.466,3.44,4.415,0,2.586-1.5,4.461-3.487,4.461-2.045,0-3.491-1.9-3.491-4.414,0-2.184,1.067-4.461,3.538-4.461" transform="translate(-78.835 -1.24)" fill="#111a31"/>
      </g>
    </g>
  </g>
</svg>
